<svg width="931" height="259" viewBox="0 0 931 259" fill="none" xmlns="http://www.w3.org/2000/svg">
<path d="M103 195.4C98.3333 198.867 92.5333 201.667 85.6 203.8C78.6667 205.8 71.1333 206.8 63 206.8C54.2 206.8 46.5333 205.533 40 203C33.6 200.333 28.3333 196.6 24.2 191.8C20.0667 187 17 181.2 15 174.4C13 167.6 12 160 12 151.6C12 133.6 16.4 119.867 25.2 110.4C34.1333 100.8 46.8 96 63.2 96C68.4 96 73.6 96.6 78.8 97.8C84 98.8667 88.6667 101 92.8 104.2C96.9333 107.267 100.267 111.533 102.8 117C105.467 122.467 106.8 129.6 106.8 138.4C106.8 140.533 106.733 143 106.6 145.8C106.467 148.6 106.2 151.333 105.8 154H30.8C31.0667 166.267 34 175.533 39.6 181.8C45.2 188.067 54.7333 191.2 68.2 191.2C73.8 191.2 79.1333 190.267 84.2 188.4C89.2667 186.4 93.2 184.067 96 181.4L103 195.4ZM89.2 140.8C89.4667 130.133 87.2667 122.6 82.6 118.2C78.0667 113.8 71.6667 111.6 63.4 111.6C54.0667 111.6 46.6667 113.8 41.2 118.2C35.7333 122.6 32.5333 130.133 31.6 140.8H89.2ZM209.131 204V146.4C209.131 140.8 208.865 135.867 208.331 131.6C207.798 127.333 206.731 123.8 205.131 121C203.531 118.067 201.265 115.933 198.331 114.6C195.531 113.133 191.865 112.4 187.331 112.4C180.265 112.4 174.331 114.4 169.531 118.4C164.865 122.267 161.531 127.267 159.531 133.4V204H141.131V99H153.731L157.331 113H159.331C163.598 108.2 168.465 104.2 173.931 101C179.531 97.6667 186.598 96 195.131 96C202.331 96 208.331 97.5333 213.131 100.6C218.065 103.667 221.798 108.8 224.331 116C228.331 109.867 233.398 105 239.531 101.4C245.665 97.8 252.531 96 260.131 96C266.531 96 271.931 96.7333 276.331 98.2C280.865 99.6667 284.531 102.2 287.331 105.8C290.131 109.4 292.198 114.267 293.531 120.4C294.865 126.533 295.531 134.267 295.531 143.6V204H277.131V143.6C277.131 138.267 276.798 133.667 276.131 129.8C275.598 125.933 274.531 122.733 272.931 120.2C271.331 117.533 269.065 115.6 266.131 114.4C263.331 113.067 259.598 112.4 254.931 112.4C247.331 112.4 241.331 114.4 236.931 118.4C232.531 122.4 229.398 128.4 227.531 136.4V204H209.131ZM329.18 151.6C329.18 142.933 330.313 135.2 332.58 128.4C334.846 121.467 338.18 115.6 342.58 110.8C346.98 106 352.313 102.333 358.58 99.8C364.98 97.2667 372.246 96 380.38 96C388.913 96 396.38 97.4 402.78 100.2C409.18 103 414.513 106.933 418.78 112C423.046 116.933 426.18 122.8 428.18 129.6C430.313 136.267 431.38 143.6 431.38 151.6C431.38 160.133 430.18 167.8 427.78 174.6C425.513 181.4 422.18 187.2 417.78 192C413.513 196.8 408.18 200.467 401.78 203C395.513 205.533 388.38 206.8 380.38 206.8C371.58 206.8 363.98 205.4 357.58 202.6C351.18 199.8 345.846 195.933 341.58 191C337.446 186.067 334.313 180.267 332.18 173.6C330.18 166.8 329.18 159.467 329.18 151.6ZM348.78 151.6C348.78 156.533 349.313 161.4 350.38 166.2C351.58 170.867 353.446 175.067 355.98 178.8C358.513 182.533 361.78 185.533 365.78 187.8C369.78 190.067 374.713 191.2 380.58 191.2C401.38 191.2 411.78 178 411.78 151.6C411.78 146.4 411.18 141.4 409.98 136.6C408.913 131.8 407.113 127.6 404.58 124C402.18 120.267 398.98 117.267 394.98 115C390.98 112.733 386.18 111.6 380.58 111.6C370.18 111.6 362.246 114.933 356.78 121.6C351.446 128.133 348.78 138.133 348.78 151.6ZM485.752 176.2C485.752 181.667 486.752 185.533 488.752 187.8C490.885 190.067 493.685 191.2 497.152 191.2C499.285 191.2 501.352 191.067 503.352 190.8C505.352 190.533 507.752 190 510.552 189.2L512.952 202.8C511.618 203.333 510.018 203.8 508.152 204.2C506.285 204.733 504.352 205.2 502.352 205.6C500.352 206 498.352 206.267 496.352 206.4C494.352 206.667 492.552 206.8 490.952 206.8C483.752 206.8 478.018 205 473.752 201.4C469.485 197.667 467.352 191.533 467.352 183V64H485.752V176.2ZM568.739 165.4L574.939 185.6H577.539L582.539 165.2L604.339 99H623.139L588.739 194C586.206 200.533 583.606 206.867 580.939 213C578.406 219.133 575.539 224.533 572.339 229.2C569.272 234 565.806 237.8 561.939 240.6C558.206 243.533 553.872 245 548.939 245C543.606 245 539.072 244.4 535.339 243.2L538.339 227.6C540.339 228.267 542.339 228.6 544.339 228.6C547.006 228.6 549.406 228.267 551.539 227.6C553.806 226.933 555.872 225.733 557.739 224C559.606 222.267 561.272 219.8 562.739 216.6C564.339 213.533 565.806 209.533 567.139 204.6L520.139 99H541.939L568.739 165.4ZM636.436 188.2L688.236 125L702.236 114.6H636.436V99H719.036V114.8L666.636 178.6L652.636 188.4H719.036V204H636.436V188.2ZM833.641 195.4C828.974 198.867 823.174 201.667 816.241 203.8C809.307 205.8 801.774 206.8 793.641 206.8C784.841 206.8 777.174 205.533 770.641 203C764.241 200.333 758.974 196.6 754.841 191.8C750.707 187 747.641 181.2 745.641 174.4C743.641 167.6 742.641 160 742.641 151.6C742.641 133.6 747.041 119.867 755.841 110.4C764.774 100.8 777.441 96 793.841 96C799.041 96 804.241 96.6 809.441 97.8C814.641 98.8667 819.307 101 823.441 104.2C827.574 107.267 830.907 111.533 833.441 117C836.107 122.467 837.441 129.6 837.441 138.4C837.441 140.533 837.374 143 837.241 145.8C837.107 148.6 836.841 151.333 836.441 154H761.441C761.707 166.267 764.641 175.533 770.241 181.8C775.841 188.067 785.374 191.2 798.841 191.2C804.441 191.2 809.774 190.267 814.841 188.4C819.907 186.4 823.841 184.067 826.641 181.4L833.641 195.4ZM819.841 140.8C820.107 130.133 817.907 122.6 813.241 118.2C808.707 113.8 802.307 111.6 794.041 111.6C784.707 111.6 777.307 113.8 771.841 118.2C766.374 122.6 763.174 130.133 762.241 140.8H819.841ZM926.572 116.4C924.305 115.733 922.105 115.133 919.972 114.6C917.839 114.067 915.839 113.8 913.972 113.8C906.905 113.8 901.372 115.6 897.372 119.2C893.505 122.8 891.105 127.333 890.172 132.8V204H871.772V99H884.572L888.172 113H889.972C893.039 107.8 896.572 103.8 900.572 101C904.705 98.0667 909.839 96.6 915.972 96.6C917.839 96.6 920.039 96.8 922.572 97.2C925.105 97.4667 927.639 98 930.172 98.8L926.572 116.4Z" fill="#186091"/>
<circle cx="381.5" cy="148.5" r="59.5" fill="#FFEFC8"/>
<path d="M409.6 177.597C402.164 184.293 392.513 187.998 382.507 188C372.501 188.002 362.849 184.299 355.411 177.607" stroke="#32B643" stroke-width="12" stroke-linecap="round"/>
<path d="M355.4 119.403C362.836 112.707 372.487 109.002 382.493 109C392.499 108.998 402.151 112.701 409.589 119.393" stroke="#F63839" stroke-width="12" stroke-linecap="round"/>
<path d="M339.038 148.685C339.042 148.594 339.046 148.503 339.05 148.412" stroke="#FA8C16" stroke-width="12" stroke-linecap="round"/>
<path d="M423 137L423 159" stroke="#3B84F2" stroke-width="12" stroke-linecap="round"/>
<path d="M438.886 208.61L410.689 200.142L429.839 180.593L438.886 208.61Z" fill="#FFEFC8"/>
</svg>
